<svg class="icon" viewBox="0 0 100 100" fill="none" xmlns="http://www.w3.org/2000/svg">
                        <defs>
                            <linearGradient id="basement-grad" x1="0%" y1="0%" x2="100%" y2="100%">
                                <stop offset="0%" style="stop-color:#ffffff;stop-opacity:1" />
                                <stop offset="100%" style="stop-color:#cccccc;stop-opacity:1" />
                            </linearGradient>
                            <linearGradient id="foundation-grad" x1="0%" y1="0%" x2="100%" y2="100%">
                                <stop offset="0%" style="stop-color:#D3D3D3;stop-opacity:1" />
                                <stop offset="100%" style="stop-color:#A9A9A9;stop-opacity:1" />
                            </linearGradient>
                            <linearGradient id="brick-grad" x1="0%" y1="0%" x2="100%" y2="100%">
                                <stop offset="0%" style="stop-color:#CD853F;stop-opacity:1" />
                                <stop offset="100%" style="stop-color:#A0522D;stop-opacity:1" />
                            </linearGradient>
                        </defs>
                        <!-- House structure above ground -->
                        <rect x="20" y="25" width="60" height="35" rx="2" fill="url(#basement-grad)" stroke="#ffffff" stroke-width="2"/>
                        <!-- Roof -->
                        <path d="M15 25 L50 10 L85 25 Z" fill="url(#brick-grad)" stroke="#ffffff" stroke-width="2"/>
                        <!-- Roof tiles -->
                        <path d="M20 22 L45 22 M25 20 L50 20 M30 18 L55 18" stroke="#8B4513" stroke-width="1" opacity="0.6"/>
                        <path d="M50 22 L75 22 M55 20 L80 20 M60 18 L85 18" stroke="#8B4513" stroke-width="1" opacity="0.6"/>
                        
                        <!-- Main floor -->
                        <rect x="20" y="25" width="60" height="20" rx="1" fill="url(#basement-grad)" stroke="#ffffff" stroke-width="1"/>
                        <!-- Windows on main floor -->
                        <rect x="30" y="30" width="8" height="8" rx="1" fill="rgba(230,243,255,0.8)" stroke="#0f3f8f" stroke-width="1"/>
                        <rect x="62" y="30" width="8" height="8" rx="1" fill="rgba(230,243,255,0.8)" stroke="#0f3f8f" stroke-width="1"/>
                        <line x1="34" y1="30" x2="34" y2="38" stroke="#0f3f8f" stroke-width="0.5"/>
                        <line x1="30" y1="34" x2="38" y2="34" stroke="#0f3f8f" stroke-width="0.5"/>
                        <line x1="66" y1="30" x2="66" y2="38" stroke="#0f3f8f" stroke-width="0.5"/>
                        <line x1="62" y1="34" x2="70" y2="34" stroke="#0f3f8f" stroke-width="0.5"/>
                        
                        <!-- Basement/underground section -->
                        <rect x="15" y="45" width="70" height="30" rx="2" fill="url(#foundation-grad)" stroke="#ffffff" stroke-width="2"/>
                        <!-- Foundation blocks/bricks -->
                        <rect x="18" y="48" width="12" height="6" rx="0.5" fill="url(#brick-grad)" stroke="#8B4513" stroke-width="0.5"/>
                        <rect x="32" y="48" width="12" height="6" rx="0.5" fill="url(#brick-grad)" stroke="#8B4513" stroke-width="0.5"/>
                        <rect x="46" y="48" width="12" height="6" rx="0.5" fill="url(#brick-grad)" stroke="#8B4513" stroke-width="0.5"/>
                        <rect x="60" y="48" width="12" height="6" rx="0.5" fill="url(#brick-grad)" stroke="#8B4513" stroke-width="0.5"/>
                        <rect x="74" y="48" width="8" height="6" rx="0.5" fill="url(#brick-grad)" stroke="#8B4513" stroke-width="0.5"/>
                        
                        <rect x="25" y="56" width="12" height="6" rx="0.5" fill="url(#brick-grad)" stroke="#8B4513" stroke-width="0.5"/>
                        <rect x="39" y="56" width="12" height="6" rx="0.5" fill="url(#brick-grad)" stroke="#8B4513" stroke-width="0.5"/>
                        <rect x="53" y="56" width="12" height="6" rx="0.5" fill="url(#brick-grad)" stroke="#8B4513" stroke-width="0.5"/>
                        <rect x="67" y="56" width="12" height="6" rx="0.5" fill="url(#brick-grad)" stroke="#8B4513" stroke-width="0.5"/>
                        
                        <rect x="18" y="64" width="12" height="6" rx="0.5" fill="url(#brick-grad)" stroke="#8B4513" stroke-width="0.5"/>
                        <rect x="32" y="64" width="12" height="6" rx="0.5" fill="url(#brick-grad)" stroke="#8B4513" stroke-width="0.5"/>
                        <rect x="46" y="64" width="12" height="6" rx="0.5" fill="url(#brick-grad)" stroke="#8B4513" stroke-width="0.5"/>
                        <rect x="60" y="64" width="12" height="6" rx="0.5" fill="url(#brick-grad)" stroke="#8B4513" stroke-width="0.5"/>
                        <rect x="74" y="64" width="8" height="6" rx="0.5" fill="url(#brick-grad)" stroke="#8B4513" stroke-width="0.5"/>
                        
                        <!-- Basement window -->
                        <rect x="25" y="52" width="10" height="6" rx="1" fill="rgba(230,243,255,0.6)" stroke="#0f3f8f" stroke-width="1"/>
                        <line x1="30" y1="52" x2="30" y2="58" stroke="#0f3f8f" stroke-width="0.5"/>
                        <line x1="25" y1="55" x2="35" y2="55" stroke="#0f3f8f" stroke-width="0.5"/>
                        
                        <!-- Basement door -->
                        <rect x="65" y="50" width="8" height="12" rx="1" fill="url(#brick-grad)" stroke="#0f3f8f" stroke-width="1"/>
                        <circle cx="71" cy="56" r="0.8" fill="#C0C0C0"/>
                        
                        <!-- Ground level indication -->
                        <line x1="10" y1="45" x2="90" y2="45" stroke="#228B22" stroke-width="3" opacity="0.7"/>
                        <path d="M12 43 L15 45 L12 47 M88 43 L85 45 L88 47" stroke="#228B22" stroke-width="1" opacity="0.7"/>
                        
                        <!-- Stairs to basement -->
                        <rect x="45" y="40" width="10" height="5" rx="0.5" fill="url(#foundation-grad)" stroke="#0f3f8f" stroke-width="1"/>
                        <line x1="46" y1="42" x2="54" y2="42" stroke="#0f3f8f" stroke-width="0.5" opacity="0.6"/>
                        <line x1="46" y1="44" x2="54" y2="44" stroke="#0f3f8f" stroke-width="0.5" opacity="0.6"/>
                        
                        <!-- Utilities in basement -->
                        <rect x="72" y="58" width="6" height="8" rx="1" fill="#4682B4" stroke="#0f3f8f" stroke-width="1"/>
                        <circle cx="75" cy="62" r="1" fill="#FFD700"/>
                        <path d="M73 60 L77 60 M73 64 L77 64" stroke="#0f3f8f" stroke-width="0.5" opacity="0.6"/>
                        
                        <!-- Insulation -->
                        <path d="M20 72 Q25 70 30 72 Q35 74 40 72 Q45 70 50 72 Q55 74 60 72 Q65 70 70 72 Q75 74 80 72" stroke="#FFB6C1" stroke-width="2" opacity="0.8"/>
                    </svg>