<svg class="icon" viewBox="0 0 100 100" fill="none" xmlns="http://www.w3.org/2000/svg">
                        <defs>
                            <linearGradient id="ceiling-grad" x1="0%" y1="0%" x2="100%" y2="100%">
                                <stop offset="0%" style="stop-color:#ffffff;stop-opacity:1" />
                                <stop offset="100%" style="stop-color:#cccccc;stop-opacity:1" />
                            </linearGradient>
                        </defs>
                        <!-- Main ceiling panel -->
                        <rect x="10" y="20" width="80" height="45" rx="3" fill="url(#ceiling-grad)" stroke="#ffffff" stroke-width="2"/>
                        <!-- Ceiling tiles/panels grid -->
                        <line x1="35" y1="20" x2="35" y2="65" stroke="#0f3f8f" stroke-width="1" opacity="0.7"/>
                        <line x1="65" y1="20" x2="65" y2="65" stroke="#0f3f8f" stroke-width="1" opacity="0.7"/>
                        <line x1="10" y1="35" x2="90" y2="35" stroke="#0f3f8f" stroke-width="1" opacity="0.7"/>
                        <line x1="10" y1="50" x2="90" y2="50" stroke="#0f3f8f" stroke-width="1" opacity="0.7"/>
                        <!-- Ceiling light fixture -->
                        <circle cx="50" cy="42.5" r="10" fill="rgba(255,255,255,0.9)" stroke="#0f3f8f" stroke-width="2"/>
                        <circle cx="50" cy="42.5" r="6" fill="none" stroke="#0f3f8f" stroke-width="1" opacity="0.6"/>
                        <circle cx="50" cy="42.5" r="2" fill="#0f3f8f"/>
                        <!-- Light rays -->
                        <path d="M50 32 L52 28 M50 32 L48 28 M40 42.5 L36 44.5 M40 42.5 L36 40.5 M60 42.5 L64 44.5 M60 42.5 L64 40.5 M50 53 L52 57 M50 53 L48 57" stroke="#0f3f8f" stroke-width="1" opacity="0.5"/>
                        <!-- Wall indication -->
                        <path d="M15 70 L85 70 L90 75 L10 75 Z" fill="rgba(255,255,255,0.7)" stroke="#0f3f8f" stroke-width="1"/>
                    </svg>