<svg class="icon" viewBox="0 0 100 100" fill="none" xmlns="http://www.w3.org/2000/svg">
                        <defs>
                            <linearGradient id="floor-grad" x1="0%" y1="0%" x2="100%" y2="100%">
                                <stop offset="0%" style="stop-color:#DEB887;stop-opacity:1" />
                                <stop offset="100%" style="stop-color:#8B7355;stop-opacity:1" />
                            </linearGradient>
                            <linearGradient id="wood-grad" x1="0%" y1="0%" x2="100%" y2="100%">
                                <stop offset="0%" style="stop-color:#F4A460;stop-opacity:1" />
                                <stop offset="100%" style="stop-color:#D2691E;stop-opacity:1" />
                            </linearGradient>
                        </defs>
                        <!-- Wooden floor planks -->
                        <rect x="10" y="25" width="80" height="10" rx="1" fill="url(#floor-grad)" stroke="#ffffff" stroke-width="1"/>
                        <rect x="10" y="38" width="80" height="10" rx="1" fill="url(#wood-grad)" stroke="#ffffff" stroke-width="1"/>
                        <rect x="10" y="51" width="80" height="10" rx="1" fill="url(#floor-grad)" stroke="#ffffff" stroke-width="1"/>
                        <rect x="10" y="64" width="80" height="10" rx="1" fill="url(#wood-grad)" stroke="#ffffff" stroke-width="1"/>
                        <!-- Wood grain texture -->
                        <path d="M15 29 Q25 28 35 29 Q45 30 55 29 Q65 28 75 29 Q85 30 85 29" stroke="#8B4513" stroke-width="0.8" opacity="0.6"/>
                        <path d="M15 31 Q30 30 45 31 Q60 32 75 31 Q85 30 85 31" stroke="#8B4513" stroke-width="0.5" opacity="0.4"/>
                        <path d="M15 42 Q25 41 35 42 Q45 43 55 42 Q65 41 75 42 Q85 43 85 42" stroke="#8B4513" stroke-width="0.8" opacity="0.6"/>
                        <path d="M15 44 Q30 43 45 44 Q60 45 75 44 Q85 43 85 44" stroke="#8B4513" stroke-width="0.5" opacity="0.4"/>
                        <path d="M15 55 Q25 54 35 55 Q45 56 55 55 Q65 54 75 55 Q85 56 85 55" stroke="#8B4513" stroke-width="0.8" opacity="0.6"/>
                        <path d="M15 57 Q30 56 45 57 Q60 58 75 57 Q85 56 85 57" stroke="#8B4513" stroke-width="0.5" opacity="0.4"/>
                        <path d="M15 68 Q25 67 35 68 Q45 69 55 68 Q65 67 75 68 Q85 69 85 68" stroke="#8B4513" stroke-width="0.8" opacity="0.6"/>
                        <path d="M15 70 Q30 69 45 70 Q60 71 75 70 Q85 69 85 70" stroke="#8B4513" stroke-width="0.5" opacity="0.4"/>
                        <!-- Plank joints -->
                        <line x1="45" y1="25" x2="45" y2="35" stroke="#8B4513" stroke-width="1" opacity="0.8"/>
                        <line x1="30" y1="38" x2="30" y2="48" stroke="#8B4513" stroke-width="1" opacity="0.8"/>
                        <line x1="60" y1="38" x2="60" y2="48" stroke="#8B4513" stroke-width="1" opacity="0.8"/>
                        <line x1="40" y1="51" x2="40" y2="61" stroke="#8B4513" stroke-width="1" opacity="0.8"/>
                        <line x1="70" y1="51" x2="70" y2="61" stroke="#8B4513" stroke-width="1" opacity="0.8"/>
                        <line x1="25" y1="64" x2="25" y2="74" stroke="#8B4513" stroke-width="1" opacity="0.8"/>
                        <line x1="55" y1="64" x2="55" y2="74" stroke="#8B4513" stroke-width="1" opacity="0.8"/>
                        <line x1="80" y1="64" x2="80" y2="74" stroke="#8B4513" stroke-width="1" opacity="0.8"/>
                        <!-- Flooring tools -->
                        <rect x="75" y="10" width="15" height="3" rx="1" fill="#C0C0C0" stroke="#0f3f8f" stroke-width="0.8"/>
                        <rect x="85" y="8" width="2" height="7" fill="#8B4513" stroke="#0f3f8f" stroke-width="0.5"/>
                        <!-- Nail gun -->
                        <rect x="20" y="78" width="12" height="4" rx="1" fill="#4682B4" stroke="#0f3f8f" stroke-width="1"/>
                        <rect x="26" y="82" width="3" height="6" fill="#696969" stroke="#0f3f8f" stroke-width="0.5"/>
                        <circle cx="26" cy="80" r="1" fill="#FFD700"/>
                        <!-- Wood chips/shavings -->
                        <path d="M85 78 Q87 76 89 78 Q91 80 89 82 Q87 84 85 82" fill="url(#floor-grad)" opacity="0.6"/>
                        <path d="M82 81 Q84 79 86 81 Q88 83 86 85 Q84 87 82 85" fill="url(#wood-grad)" opacity="0.6"/>
                    </svg>