<svg class="icon" viewBox="0 0 100 100" fill="none" xmlns="http://www.w3.org/2000/svg">
                        <defs>
                            <linearGradient id="paint-grad" x1="0%" y1="0%" x2="100%" y2="100%">
                                <stop offset="0%" style="stop-color:#ffffff;stop-opacity:1" />
                                <stop offset="100%" style="stop-color:#cccccc;stop-opacity:1" />
                            </linearGradient>
                            <linearGradient id="brush-grad" x1="0%" y1="0%" x2="100%" y2="100%">
                                <stop offset="0%" style="stop-color:#8B4513;stop-opacity:1" />
                                <stop offset="100%" style="stop-color:#654321;stop-opacity:1" />
                            </linearGradient>
                        </defs>
                        <!-- Paint brush handle -->
                        <rect x="35" y="10" width="6" height="50" fill="url(#brush-grad)" stroke="#0f3f8f" stroke-width="1"/>
                        <!-- Brush ferrule (metal part) -->
                        <rect x="33" y="55" width="10" height="8" fill="rgba(192,192,192,0.9)" stroke="#0f3f8f" stroke-width="1"/>
                        <!-- Brush bristles -->
                        <rect x="30" y="63" width="16" height="12" rx="2" fill="url(#paint-grad)" stroke="#0f3f8f" stroke-width="1"/>
                        <!-- Paint drip -->
                        <path d="M38 75 Q40 78 38 82 Q36 78 38 75" fill="#0f3f8f" opacity="0.8"/>
                        <!-- Wall being painted -->
                        <rect x="55" y="20" width="35" height="50" rx="2" fill="rgba(255,255,255,0.3)" stroke="#ffffff" stroke-width="2"/>
                        <!-- Painted area -->
                        <rect x="55" y="20" width="20" height="50" rx="2" fill="#0f3f8f" opacity="0.3"/>
                        <!-- Paint strokes -->
                        <path d="M60 25 L70 25 M60 35 L70 35 M60 45 L70 45 M60 55 L70 55 M60 65 L70 65" stroke="#0f3f8f" stroke-width="2" opacity="0.6"/>
                        <!-- Paint can -->
                        <rect x="15" y="75" width="25" height="18" rx="2" fill="url(#paint-grad)" stroke="#0f3f8f" stroke-width="1"/>
                        <ellipse cx="27.5" cy="75" rx="12.5" ry="3" fill="#0f3f8f" opacity="0.7"/>
                        <path d="M20 80 L35 80" stroke="#0f3f8f" stroke-width="1" opacity="0.6"/>
                    </svg>