<svg class="icon" viewBox="0 0 100 100" fill="none" xmlns="http://www.w3.org/2000/svg">
                        <defs>
                            <linearGradient id="tile-grad" x1="0%" y1="0%" x2="100%" y2="100%">
                                <stop offset="0%" style="stop-color:#ffffff;stop-opacity:1" />
                                <stop offset="100%" style="stop-color:#cccccc;stop-opacity:1" />
                            </linearGradient>
                            <linearGradient id="grout-grad" x1="0%" y1="0%" x2="100%" y2="100%">
                                <stop offset="0%" style="stop-color:#E0E0E0;stop-opacity:1" />
                                <stop offset="100%" style="stop-color:#B0B0B0;stop-opacity:1" />
                            </linearGradient>
                        </defs>
                        <!-- Tile grid background -->
                        <rect x="10" y="20" width="80" height="60" rx="2" fill="url(#grout-grad)" stroke="#ffffff" stroke-width="2"/>
                        <!-- Individual tiles -->
                        <rect x="15" y="25" width="18" height="18" rx="1" fill="url(#tile-grad)" stroke="#0f3f8f" stroke-width="0.5"/>
                        <rect x="36" y="25" width="18" height="18" rx="1" fill="url(#tile-grad)" stroke="#0f3f8f" stroke-width="0.5"/>
                        <rect x="57" y="25" width="18" height="18" rx="1" fill="url(#tile-grad)" stroke="#0f3f8f" stroke-width="0.5"/>
                        <rect x="15" y="46" width="18" height="18" rx="1" fill="url(#tile-grad)" stroke="#0f3f8f" stroke-width="0.5"/>
                        <rect x="36" y="46" width="18" height="18" rx="1" fill="url(#tile-grad)" stroke="#0f3f8f" stroke-width="0.5"/>
                        <rect x="57" y="46" width="18" height="18" rx="1" fill="url(#tile-grad)" stroke="#0f3f8f" stroke-width="0.5"/>
                        <!-- Tile pattern/texture -->
                        <path d="M18 28 L30 28 M18 32 L30 32 M18 36 L30 36 M18 40 L30 40" stroke="#0f3f8f" stroke-width="0.3" opacity="0.4"/>
                        <path d="M39 28 L51 28 M39 32 L51 32 M39 36 L51 36 M39 40 L51 40" stroke="#0f3f8f" stroke-width="0.3" opacity="0.4"/>
                        <path d="M60 28 L72 28 M60 32 L72 32 M60 36 L72 36 M60 40 L72 40" stroke="#0f3f8f" stroke-width="0.3" opacity="0.4"/>
                        <path d="M18 49 L30 49 M18 53 L30 53 M18 57 L30 57 M18 61 L30 61" stroke="#0f3f8f" stroke-width="0.3" opacity="0.4"/>
                        <path d="M39 49 L51 49 M39 53 L51 53 M39 57 L51 57 M39 61 L51 61" stroke="#0f3f8f" stroke-width="0.3" opacity="0.4"/>
                        <path d="M60 49 L72 49 M60 53 L72 53 M60 57 L72 57 M60 61 L72 61" stroke="#0f3f8f" stroke-width="0.3" opacity="0.4"/>
                        <!-- Tile cutter tool -->
                        <rect x="75" y="10" width="15" height="4" rx="1" fill="url(#grout-grad)" stroke="#0f3f8f" stroke-width="1"/>
                        <rect x="85" y="8" width="2" height="8" fill="#8B4513" stroke="#0f3f8f" stroke-width="0.5"/>
                        <circle cx="86" cy="12" r="0.8" fill="#C0C0C0"/>
                        <!-- Adhesive/mortar -->
                        <path d="M20 75 Q25 73 30 75 Q35 77 40 75" fill="none" stroke="#0f3f8f" stroke-width="2" opacity="0.6"/>
                        <ellipse cx="30" cy="78" rx="6" ry="2" fill="rgba(255,255,255,0.6)" stroke="#0f3f8f" stroke-width="0.8" opacity="0.7"/>
                        <!-- Spacers -->
                        <rect x="33" y="34" width="2" height="2" rx="0.5" fill="#0f3f8f" opacity="0.5"/>
                        <rect x="54" y="34" width="2" height="2" rx="0.5" fill="#0f3f8f" opacity="0.5"/>
                        <rect x="33" y="55" width="2" height="2" rx="0.5" fill="#0f3f8f" opacity="0.5"/>
                        <rect x="54" y="55" width="2" height="2" rx="0.5" fill="#0f3f8f" opacity="0.5"/>
                    </svg>