<svg class="icon" viewBox="0 0 100 100" fill="none" xmlns="http://www.w3.org/2000/svg">
                        <defs>
                            <linearGradient id="window-grad" x1="0%" y1="0%" x2="100%" y2="100%">
                                <stop offset="0%" style="stop-color:#ffffff;stop-opacity:1" />
                                <stop offset="100%" style="stop-color:#cccccc;stop-opacity:1" />
                            </linearGradient>
                            <linearGradient id="glass-grad" x1="0%" y1="0%" x2="100%" y2="100%">
                                <stop offset="0%" style="stop-color:#E6F3FF;stop-opacity:0.8" />
                                <stop offset="100%" style="stop-color:#B3D9FF;stop-opacity:0.8" />
                            </linearGradient>
                            <linearGradient id="door-grad" x1="0%" y1="0%" x2="100%" y2="100%">
                                <stop offset="0%" style="stop-color:#DEB887;stop-opacity:1" />
                                <stop offset="100%" style="stop-color:#8B7355;stop-opacity:1" />
                            </linearGradient>
                        </defs>
                        <!-- Window frame -->
                        <rect x="15" y="20" width="35" height="45" rx="2" fill="url(#window-grad)" stroke="#ffffff" stroke-width="2"/>
                        <!-- Window glass panes -->
                        <rect x="18" y="23" width="14" height="19" rx="1" fill="url(#glass-grad)" stroke="#0f3f8f" stroke-width="0.8"/>
                        <rect x="33" y="23" width="14" height="19" rx="1" fill="url(#glass-grad)" stroke="#0f3f8f" stroke-width="0.8"/>
                        <rect x="18" y="43" width="14" height="19" rx="1" fill="url(#glass-grad)" stroke="#0f3f8f" stroke-width="0.8"/>
                        <rect x="33" y="43" width="14" height="19" rx="1" fill="url(#glass-grad)" stroke="#0f3f8f" stroke-width="0.8"/>
                        <!-- Window dividers -->
                        <line x1="32.5" y1="23" x2="32.5" y2="62" stroke="#0f3f8f" stroke-width="1"/>
                        <line x1="18" y1="42.5" x2="47" y2="42.5" stroke="#0f3f8f" stroke-width="1"/>
                        <!-- Window handle -->
                        <rect x="44" y="30" width="2" height="4" rx="1" fill="#C0C0C0" stroke="#0f3f8f" stroke-width="0.5"/>
                        <!-- Window lock -->
                        <circle cx="45" cy="50" r="1" fill="#C0C0C0" stroke="#0f3f8f" stroke-width="0.5"/>
                        <!-- Glass reflection -->
                        <path d="M20 25 L30 25 L25 35 Z" fill="rgba(255,255,255,0.4)" opacity="0.6"/>
                        <path d="M35 25 L45 25 L40 35 Z" fill="rgba(255,255,255,0.4)" opacity="0.6"/>
                        
                        <!-- Door -->
                        <rect x="55" y="25" width="30" height="50" rx="2" fill="url(#door-grad)" stroke="#ffffff" stroke-width="2"/>
                        <!-- Door panels -->
                        <rect x="58" y="28" width="24" height="15" rx="1" fill="none" stroke="#0f3f8f" stroke-width="1" opacity="0.6"/>
                        <rect x="58" y="46" width="24" height="15" rx="1" fill="none" stroke="#0f3f8f" stroke-width="1" opacity="0.6"/>
                        <!-- Door handle -->
                        <circle cx="77" cy="52" r="2" fill="#C0C0C0" stroke="#0f3f8f" stroke-width="1"/>
                        <rect x="76" y="54" width="2" height="3" rx="0.5" fill="#C0C0C0" stroke="#0f3f8f" stroke-width="0.5"/>
                        <!-- Door lock -->
                        <rect x="75" y="48" width="4" height="2" rx="1" fill="#FFD700" stroke="#0f3f8f" stroke-width="0.5"/>
                        <!-- Door hinges -->
                        <rect x="57" y="30" width="2" height="4" rx="0.5" fill="#C0C0C0" stroke="#0f3f8f" stroke-width="0.5"/>
                        <rect x="57" y="45" width="2" height="4" rx="0.5" fill="#C0C0C0" stroke="#0f3f8f" stroke-width="0.5"/>
                        <rect x="57" y="60" width="2" height="4" rx="0.5" fill="#C0C0C0" stroke="#0f3f8f" stroke-width="0.5"/>
                        <!-- Wood grain on door -->
                        <path d="M60 30 Q70 29 80 30" stroke="#8B4513" stroke-width="0.5" opacity="0.4"/>
                        <path d="M60 35 Q70 34 80 35" stroke="#8B4513" stroke-width="0.5" opacity="0.4"/>
                        <path d="M60 50 Q70 49 80 50" stroke="#8B4513" stroke-width="0.5" opacity="0.4"/>
                        <path d="M60 55 Q70 54 80 55" stroke="#8B4513" stroke-width="0.5" opacity="0.4"/>
                        <path d="M60 65 Q70 64 80 65" stroke="#8B4513" stroke-width="0.5" opacity="0.4"/>
                        
                        <!-- Installation tools -->
                        <rect x="20" y="78" width="15" height="3" rx="1" fill="#4682B4" stroke="#0f3f8f" stroke-width="1"/>
                        <rect x="30" y="76" width="2" height="7" fill="#8B4513" stroke="#0f3f8f" stroke-width="0.5"/>
                        <!-- Level tool -->
                        <rect x="70" y="10" width="20" height="3" rx="1" fill="#FFD700" stroke="#0f3f8f" stroke-width="1"/>
                        <circle cx="80" cy="11.5" r="1" fill="#32CD32" opacity="0.8"/>
                        <path d="M78 11.5 L82 11.5" stroke="#0f3f8f" stroke-width="0.5"/>
                    </svg>